<svg version="1.2" xmlns="http://www.w3.org/2000/svg" viewBox="0 0 159 60" width="159" height="60">
	<title>yapper-logo-svg</title>
	<defs>
		<linearGradient id="g1" x2="1" gradientUnits="userSpaceOnUse" gradientTransform="matrix(0,33.173,-33.142,0,21.58,11.151)">
			<stop offset="0" stop-color="#a4c1ff"/>
			<stop offset="1" stop-color="#0e78f9"/>
		</linearGradient>
		<linearGradient id="g2" x2="1" gradientUnits="userSpaceOnUse" gradientTransform="matrix(0,12.508,-16.087,0,18.441,21.447)">
			<stop offset="0" stop-color="#ffffff"/>
			<stop offset="1" stop-color="#c5d4f7"/>
		</linearGradient>
		<linearGradient id="g3" x2="1" gradientUnits="userSpaceOnUse" gradientTransform="matrix(0,12.508,-16.194,0,18.441,21.447)">
			<stop offset="0" stop-color="#ffffff"/>
			<stop offset="1" stop-color="#637aca"/>
		</linearGradient>
		<linearGradient id="g4" x2="1" gradientUnits="userSpaceOnUse" gradientTransform="matrix(0,12.297,-5.349,0,30.124,21.567)">
			<stop offset="0" stop-color="#ffffff"/>
			<stop offset="1" stop-color="#c5d4f7"/>
		</linearGradient>
		<linearGradient id="g5" x2="1" gradientUnits="userSpaceOnUse" gradientTransform="matrix(0,12.297,-5.138,0,30.124,21.567)">
			<stop offset="0" stop-color="#ffffff"/>
			<stop offset="1" stop-color="#637aca"/>
		</linearGradient>
	</defs>
	<style>
		.s0 { fill: url(#g1) } 
		.s1 { fill: url(#g2) } 
		.s2 { fill: none;stroke: url(#g3);stroke-width: .5 } 
		.s3 { fill: url(#g4) } 
		.s4 { fill: none;stroke: url(#g5);stroke-width: .5 } 
		.s5 { fill: #ffffff } 
	</style>
	<path class="s0" d="m16.8 11.2q0.9 0 1.8 0h6q0.8 0 1.8 0c1.6-0.1 3.3-0.1 4.4 0 4.1 0.3 6.9 2.7 7.3 6.9 0.1 1.6 0.1 3.4 0.1 5.5q-0.1 0.6-0.1 1.2v5.9q0 0.6 0.1 1.2c0 2.1 0 3.9-0.1 5.4-0.4 4.2-3.2 6.7-7.3 7-1.1 0-2.8 0-4.4 0q-1 0-1.8 0h-6q-0.9 0-1.8 0c-1.7 0-3.3 0-4.4 0-4.1-0.3-6.9-2.8-7.3-7-0.1-1.5-0.1-3.3-0.1-5.4q0-0.6 0-1.2v-5.9q0-0.6 0-1.2c0-2.1 0-3.9 0.1-5.5 0.4-4.2 3.2-6.6 7.3-6.9 1.1-0.1 2.7-0.1 4.4 0z"/>
	<g>
		<path class="s1" d="m10.4 23c0-0.9 0.7-1.6 1.5-1.6h10.7c2.2 0 3.9 1.8 3.9 3.9v7.1c0 0.9-0.7 1.6-1.5 1.6h-10.7c-2.2 0-3.9-1.8-3.9-3.9z"/>
		<path fill-rule="evenodd" class="s2" d="m11.9 21.6h10.7c2.1 0 3.7 1.7 3.7 3.7v7.1c0 0.8-0.6 1.4-1.3 1.4h-10.7c-2.1 0-3.7-1.7-3.7-3.7v-7.1c0-0.8 0.6-1.4 1.3-1.4z"/>
	</g>
	<g>
		<path class="s3" d="m27.4 25.9c0-0.5 0.3-1 0.7-1.4l3-2.7c0.7-0.6 1.7-0.1 1.7 0.8v10.3c0 0.8-1 1.3-1.7 0.7l-2.8-2.4c-0.5-0.4-0.9-1.1-0.9-1.9z"/>
		<path fill-rule="evenodd" class="s4" d="m28.2 24.7l3-2.7c0.6-0.5 1.4-0.1 1.4 0.6v10.3c0 0.7-0.8 1-1.3 0.6l-2.9-2.4c-0.5-0.4-0.8-1.1-0.8-1.8v-3.4c0-0.5 0.2-0.9 0.6-1.2z"/>
		<path id="YAPPER" class="s5" aria-label="YAPPER"  d="m43.5 18.4l7.2 13.4v6.2h5.3v-6.2l7.2-13.4h-6l-3.8 7.9h-0.2l-3.8-7.9zm24.6 19.6l1.1-3.8h6.5l1.1 3.8h5.7l-6.4-19.6h-7.3l-6.5 19.6zm2.3-7.7l2-6.5h0.1l2 6.5zm14 7.7h5.4v-5.8h2.9c4.5 0 7.5-2.7 7.5-6.9 0-4.2-2.9-6.9-7.3-6.9h-8.5zm5.4-10v-5.4h1.8c1.9 0 3 1 3 2.7 0 1.6-1.1 2.7-3 2.7zm12.4 10h5.4v-5.9h2.9c4.5 0 7.5-2.6 7.5-6.8 0-4.2-2.9-7-7.3-7h-8.5zm5.4-9.9v-5.5h1.8c1.9 0 3 1 3 2.7 0 1.7-1.1 2.8-3 2.8zm12.4 9.9h14.1v-4.3h-8.7v-3.3h8.1v-4.3h-8.1v-3.4h8.8v-4.3h-14.2zm16.8 0h5.4v-6.5h1.8l3.5 6.5h5.7l-3.9-7.3c2-1 3.3-2.9 3.3-5.7 0-4.2-2.9-6.6-7.3-6.6h-8.5zm5.4-10.7v-4.7h1.8c1.9 0 3 0.7 3 2.4 0 1.7-1.1 2.3-3 2.3z"/>
	</g>
</svg>